<?xml version="1.0" encoding="UTF-8" standalone="no"?>
<!DOCTYPE svg PUBLIC "-//W3C//DTD SVG 1.1//EN" "http://www.w3.org/Graphics/SVG/1.1/DTD/svg11.dtd">
<svg width="100%" height="100%" viewBox="0 0 261 198" version="1.1" xmlns="http://www.w3.org/2000/svg" xmlns:xlink="http://www.w3.org/1999/xlink" xml:space="preserve" style="fill-rule:evenodd;clip-rule:evenodd;stroke-linejoin:round;stroke-miterlimit:1.41421;">
    <g transform="matrix(1,0,0,1,-1303.31,-1871.97)">
        <g>
            <g transform="matrix(1,0,0,1,58.006,5.50153)">
                <path d="M1379.27,1953.81L1382.63,1941.26C1389.56,1915.41 1406.47,1893.37 1429.65,1879.99C1452.83,1866.6 1480.38,1862.98 1506.23,1869.9C1506.23,1869.9 1506.23,1869.9 1506.23,1869.9C1506.23,1869.9 1489.75,1931.4 1474.36,1988.82C1467.44,2014.67 1450.52,2036.72 1427.35,2050.1C1412.03,2058.94 1394.81,2063.52 1377.43,2063.62L1377.02,2063.62C1376.74,2063.62 1376.46,2063.62 1376.18,2063.62C1375.91,2063.61 1375.48,2063.37 1375.36,2063.59L1375.35,2063.62C1357.55,2063.74 1339.87,2059.15 1324.19,2050.1C1321.66,2048.64 1319.22,2047.08 1316.85,2045.42C1343.66,2030.47 1364.58,2003.33 1376.44,1964.09C1376.51,1964 1376.57,1963.9 1376.6,1963.78L1377.27,1961.29C1377.97,1958.84 1378.64,1956.35 1379.27,1953.81Z" style="fill:rgb(0,230,164);"/>
            </g>
            <g transform="matrix(1,0,0,1,58.006,5.50153)">
                <path d="M1316.85,2045.42C1297.45,2031.87 1283.34,2011.86 1277.17,1988.82C1261.78,1931.4 1245.31,1869.9 1245.31,1869.9C1245.31,1869.9 1245.31,1869.9 1245.31,1869.9C1271.16,1862.98 1298.7,1866.6 1321.88,1879.99C1345.06,1893.37 1361.98,1915.41 1368.9,1941.26C1368.9,1941.26 1373.11,1956.96 1374.94,1963.78C1375.04,1964.15 1375.38,1964.42 1375.77,1964.42C1376.03,1964.42 1376.28,1964.29 1376.44,1964.09C1364.58,2003.33 1343.66,2030.47 1316.85,2045.42L1316.85,2045.42ZM1376.46,1964.06L1376.44,1964.09L1376.48,1964.04L1376.46,1964.06ZM1376.52,1963.98C1376.51,1964 1376.49,1964.02 1376.48,1964.03L1376.52,1963.98ZM1376.53,1963.95L1376.52,1963.97L1376.55,1963.92L1376.53,1963.95ZM1376.57,1963.85C1376.57,1963.87 1376.56,1963.89 1376.55,1963.91L1376.57,1963.85ZM1376.59,1963.82L1376.58,1963.83L1376.59,1963.82L1376.59,1963.82Z" style="fill:rgb(0,193,137);"/>
            </g>
        </g>
    </g>
</svg>
